<svg width="81" height="54" viewBox="0 0 81 54" fill="none" xmlns="http://www.w3.org/2000/svg">
<g clip-path="url(#clip0_12_179)">
<path d="M21.3167 0L26.4541 18.5151H21.0787L19.9845 14.5059H14.4279L13.2484 18.5151H11.1522L16.6164 0H21.3167ZM14.9466 12.6294H19.4764L17.2985 4.44006L14.9466 12.6294Z" fill="#DA7455"/>
<path d="M28.4614 18.4973V-0.0177917H36.4268C40.9436 -0.0177917 43.2008 1.79337 43.1984 5.41568C43.1984 9.07597 40.6878 10.9061 35.6665 10.9061H33.8155V18.4795L28.4614 18.4973ZM33.8155 9.21484H35.0199C36.9668 9.21484 37.9403 7.92353 37.9403 5.34091C37.9403 2.9197 36.9668 1.7091 35.0199 1.7091H33.8155V9.21484Z" fill="#DA7455"/>
<path d="M59.0473 1.23177e-05V18.5151H54.9509L47.2521 6.79007V18.4973H45.4543V-0.0177917H48.8473L57.2603 12.6259V1.23177e-05H59.0473Z" fill="#DA7455"/>
<path d="M68.0536 0V18.5151H62.696V0H68.0536Z" fill="#DA7455"/>
<path d="M2.84242 51.9242C2.70233 51.8364 2.55037 51.7692 2.39121 51.7248C2.22423 51.6749 2.0608 51.6286 1.89382 51.593L1.44262 51.4791C1.32368 51.4498 1.2115 51.3978 1.11221 51.326C1.07198 51.2983 1.03923 51.261 1.0169 51.2175C0.994579 51.174 0.983382 51.1256 0.984311 51.0767C0.983281 50.9935 1.00948 50.9122 1.05892 50.8453C1.12359 50.7694 1.20869 50.7138 1.30406 50.6851C1.44599 50.6378 1.59514 50.6162 1.74461 50.621C1.92972 50.6215 2.11386 50.6479 2.29173 50.6993C2.48682 50.7537 2.67424 50.8327 2.84952 50.9343L3.13375 50.2222C2.93501 50.0993 2.7179 50.0092 2.49069 49.9552C2.2474 49.8971 1.99825 49.8672 1.74816 49.8661C1.42694 49.8556 1.10718 49.9139 0.810222 50.0371C0.584679 50.129 0.390824 50.2849 0.252437 50.4857C0.129762 50.6714 0.0654122 50.8897 0.0676907 51.1123C0.0603512 51.2965 0.10466 51.4791 0.195591 51.6393C0.279779 51.7742 0.394114 51.8875 0.529554 51.9705C0.671778 52.0551 0.823151 52.1231 0.980754 52.1734C1.14774 52.2268 1.31117 52.2731 1.47815 52.3087C1.64513 52.3443 1.79435 52.3835 1.9329 52.4226C2.05156 52.4545 2.16349 52.5076 2.26331 52.5793C2.30317 52.608 2.33537 52.646 2.35706 52.6901C2.37875 52.7342 2.38926 52.783 2.38766 52.8321C2.387 52.9141 2.35814 52.9933 2.30595 53.0564C2.24002 53.1285 2.155 53.1804 2.0608 53.206C1.91623 53.2457 1.76656 53.2637 1.61671 53.2594C1.37503 53.2596 1.13497 53.2199 0.906149 53.1419C0.690062 53.0727 0.485345 52.9719 0.29862 52.8428L-0.0175781 53.5549C0.197557 53.7079 0.43817 53.8212 0.692979 53.8896C0.992109 53.9757 1.30192 54.0189 1.61315 54.0178C1.93555 54.0287 2.25655 53.9704 2.55464 53.8469C2.78001 53.7513 2.97438 53.5947 3.11598 53.3947C3.24051 53.2137 3.30627 52.9986 3.30428 52.7787C3.31349 52.6074 3.27521 52.4369 3.19369 52.2861C3.11217 52.1353 2.99059 52.01 2.84242 51.9242Z" fill="url(#paint0_linear_12_179)"/>
<path d="M8.73635 52.7645L7.82684 49.9302H6.97062L6.02913 52.7431L5.13027 49.9302H4.17102L5.47845 53.9288H6.46967L7.37208 51.2192L8.25317 53.9288H9.2444L10.5518 49.9302H9.66718L8.73635 52.7645Z" fill="url(#paint1_linear_12_179)"/>
<path d="M12.7581 49.9338L10.9817 53.9324H11.9303L12.2856 53.0743H14.133L14.4883 53.9324H15.4582L13.6818 49.9338H12.7581ZM12.5733 52.3728L13.2093 50.8418L13.8417 52.3728H12.5733Z" fill="url(#paint2_linear_12_179)"/>
<path d="M17.8244 49.9338L16.048 53.9324H16.9966L17.3518 53.0743H19.1851L19.5404 53.9324H20.5103L18.7339 49.9338H17.8244ZM17.6396 52.3728L18.2756 50.8418L18.908 52.3728H17.6396Z" fill="url(#paint3_linear_12_179)"/>
<path d="M24.4645 50.1795C24.1074 50.0096 23.7157 49.9255 23.3205 49.9338H21.505V53.9324H23.3205C23.7159 53.9394 24.1076 53.8541 24.4645 53.6831C24.7846 53.5239 25.0532 53.277 25.239 52.971C25.4215 52.6492 25.5174 52.2854 25.5174 51.9153C25.5174 51.5452 25.4215 51.1814 25.239 50.8596C25.048 50.5659 24.7801 50.3306 24.4645 50.1795ZM24.4218 52.59C24.3138 52.7737 24.1561 52.923 23.9671 53.0208C23.7459 53.1279 23.502 53.1792 23.2565 53.1704H22.411V50.678H23.2565C23.502 50.6692 23.7459 50.7205 23.9671 50.8275C24.1561 50.9254 24.3138 51.0747 24.4218 51.2584C24.5356 51.4588 24.5921 51.6866 24.5853 51.9171C24.5938 52.1522 24.5373 52.3851 24.4218 52.59Z" fill="url(#paint4_linear_12_179)"/>
<path d="M31.7015 51.5076H29.8895V49.9302H28.9658V53.9288H29.8895V52.2909H31.7015V53.9288H32.6252V49.9302H31.7015V51.5076Z" fill="url(#paint5_linear_12_179)"/>
<path d="M35.0661 49.9302H34.1423V53.9288H35.0661V49.9302Z" fill="url(#paint6_linear_12_179)"/>
<path d="M39.3258 52.3586L37.3433 49.9302H36.5795V53.9288H37.4925V51.504L39.4821 53.9288H40.2388V49.9302H39.3258V52.3586Z" fill="url(#paint7_linear_12_179)"/>
<path d="M44.7154 50.1795C44.3583 50.0096 43.9667 49.9255 43.5715 49.9338H41.7595V53.9324H43.5715C43.9669 53.9394 44.3586 53.8541 44.7154 53.6831C45.0356 53.5239 45.3042 53.277 45.49 52.971C45.6725 52.6492 45.7684 52.2854 45.7684 51.9153C45.7684 51.5452 45.6725 51.1814 45.49 50.8596C45.299 50.5659 45.031 50.3306 44.7154 50.1795ZM44.6728 52.59C44.5658 52.7745 44.4079 52.9242 44.218 53.0208C44.0022 53.1251 43.7648 53.1763 43.5253 53.1704H42.6797V50.678H43.5253C43.7648 50.672 44.0022 50.7233 44.218 50.8275C44.4079 50.9242 44.5658 51.0738 44.6728 51.2584C44.7865 51.4588 44.8431 51.6866 44.8362 51.9171C44.8448 52.1522 44.7882 52.3851 44.6728 52.59Z" fill="url(#paint8_linear_12_179)"/>
<path d="M49.7035 52.1378C49.7305 52.4317 49.6469 52.7251 49.469 52.9603C49.2883 53.121 49.0551 53.2097 48.8135 53.2097C48.5719 53.2097 48.3387 53.121 48.158 52.9603C47.9802 52.7251 47.8965 52.4317 47.9236 52.1378V49.9338H46.9998V52.1699C46.9807 52.4193 47.0132 52.67 47.0953 52.9063C47.1774 53.1426 47.3074 53.3593 47.477 53.5429C47.6466 53.7265 47.8523 53.8729 48.0811 53.9731C48.3098 54.0732 48.5568 54.1249 48.8064 54.1249C49.0561 54.1249 49.303 54.0732 49.5318 53.9731C49.7606 53.8729 49.9662 53.7265 50.1358 53.5429C50.3055 53.3593 50.4354 53.1426 50.5175 52.9063C50.5996 52.67 50.6321 52.4193 50.613 52.1699V49.9338H49.7035V52.1378Z" fill="url(#paint9_linear_12_179)"/>
<path d="M54.6383 51.9242C54.4982 51.8364 54.3463 51.7692 54.1871 51.7248C54.0201 51.6749 53.8567 51.6286 53.6897 51.593L53.2349 51.4791C53.1165 51.4483 53.0046 51.3965 52.9045 51.326C52.8654 51.2975 52.8337 51.2599 52.812 51.2166C52.7904 51.1732 52.7795 51.1252 52.7802 51.0767C52.7792 50.9935 52.8054 50.9122 52.8548 50.8453C52.9195 50.7694 53.0046 50.7138 53.0999 50.6851C53.2407 50.6381 53.3886 50.6164 53.5369 50.621C53.7221 50.621 53.9063 50.6474 54.0841 50.6993C54.2805 50.753 54.4692 50.832 54.6454 50.9343L54.9296 50.2222C54.7309 50.0993 54.5138 50.0092 54.2866 49.9552C54.0433 49.8971 53.7941 49.8672 53.544 49.8661C53.2228 49.8556 52.9031 49.9139 52.6061 50.0371C52.3787 50.1328 52.1846 50.2939 52.0483 50.4999C51.9256 50.6856 51.8613 50.9039 51.8636 51.1266C51.8562 51.3108 51.9005 51.4933 51.9915 51.6536C52.0757 51.7884 52.19 51.9018 52.3254 51.9847C52.4677 52.0693 52.619 52.1374 52.7766 52.1876C52.9436 52.2411 53.1071 52.2873 53.274 52.3229C53.441 52.3586 53.5902 52.3977 53.7252 52.4369C53.8452 52.468 53.9585 52.5211 54.0592 52.5936C54.0991 52.6222 54.1313 52.6603 54.153 52.7044C54.1746 52.7485 54.1851 52.7972 54.1835 52.8464C54.1829 52.9283 54.154 53.0076 54.1018 53.0707C54.0359 53.1428 53.9509 53.1947 53.8567 53.2202C53.7121 53.26 53.5624 53.278 53.4126 53.2736C53.171 53.2732 52.931 53.2335 52.702 53.1561C52.4874 53.0862 52.2839 52.9854 52.0981 52.857L51.7819 53.5692C51.997 53.7221 52.2376 53.8355 52.4924 53.9039C52.7915 53.99 53.1014 54.0331 53.4126 54.032C53.735 54.043 54.056 53.9847 54.3541 53.8611C54.5794 53.7655 54.7738 53.609 54.9154 53.4089C55.0399 53.2279 55.1057 53.0128 55.1037 52.7929C55.1123 52.6223 55.0737 52.4525 54.9922 52.3024C54.9107 52.1522 54.7895 52.0275 54.6418 51.942L54.6383 51.9242Z" fill="url(#paint10_linear_12_179)"/>
<path d="M55.793 50.6851H57.072V53.9288H57.9957V50.6851H59.2712V49.9302H55.793V50.6851Z" fill="url(#paint11_linear_12_179)"/>
<path d="M61.3921 49.9338L59.6157 53.9324H60.5608L60.916 53.0743H62.7671L63.1223 53.9324H64.0922L62.3158 49.9338H61.3921ZM61.2074 52.3728L61.8433 50.8418L62.4757 52.3728H61.2074Z" fill="url(#paint12_linear_12_179)"/>
<path d="M67.8192 52.3586L65.8367 49.9302H65.0729V53.9288H65.9859V51.504L67.9755 53.9288H68.7322V49.9302H67.8192V52.3586Z" fill="url(#paint13_linear_12_179)"/>
<path d="M76.1433 49.9302H75.1166L73.3508 51.796V49.9302H72.4307V53.9288H73.3508V52.9211L73.8838 52.3621L75.1628 53.9288H76.2393L74.4913 51.7141L76.1433 49.9302Z" fill="url(#paint14_linear_12_179)"/>
<path d="M80.0265 53.9324H81.0036L79.2272 49.9338H78.3177L76.5413 53.9324H77.4508L77.8061 53.0743H79.6571L80.0265 53.9324ZM78.1116 52.3728L78.7475 50.8418L79.3799 52.3728H78.1116Z" fill="url(#paint15_linear_12_179)"/>
<path d="M46.9395 26.174C45.3194 26.174 43.2067 27.5412 40.6013 30.2758L39.4715 31.465V26.9359H36.5938V46.9571L39.5568 48.5167V37.3257C40.5939 38.3426 41.6838 39.3042 42.8218 40.2063C44.3542 41.3575 45.632 41.9332 46.6552 41.9332C47.8717 41.884 49.0539 41.5157 50.0837 40.865C51.2786 40.1912 52.3005 39.2477 53.068 38.1091C53.8599 36.9753 54.2875 35.6262 54.2937 34.2423C54.2937 32.462 53.5204 30.6817 51.9738 28.9014C50.3726 27.0831 48.6945 26.174 46.9395 26.174ZM50.3111 36.3501C49.6062 37.1372 48.7433 37.7661 47.779 38.1957C46.8147 38.6252 45.7707 38.8457 44.7154 38.8426C44.0201 38.8344 43.3333 38.6892 42.6939 38.4153C41.1472 37.7839 40.3751 37.0539 40.3775 36.2255C40.3775 34.8013 41.4895 33.1848 43.7135 31.376C45.876 29.6076 47.6867 28.7222 49.1457 28.7198C49.8172 28.6956 50.4728 28.9285 50.979 29.3714C51.9572 30.2354 52.4451 31.1386 52.4427 32.081C52.4427 33.4411 51.7322 34.8642 50.3111 36.3501Z" fill="#941F77"/>
<path d="M66.9345 26.2879C66.0745 26.2867 65.2205 26.4312 64.4085 26.7151C62.734 27.2943 61.6302 27.851 61.0973 28.3851V26.9608H57.5552V40.7047L61.108 42.5634V34.698C61.108 32.443 62.2141 30.3873 64.4263 28.531C65.5134 27.6148 66.5331 27.1567 67.4852 27.1567C67.9765 27.1661 68.4562 27.3075 68.8744 27.5661C69.4179 27.8617 69.6879 28.2213 69.6879 28.6343C69.6879 29.4283 69.2581 30.1333 68.3912 30.7529C67.6941 31.2762 66.867 31.5976 66.0001 31.6822L68.782 34.8404C69.6609 34.4068 70.4523 33.8141 71.1162 33.0922C71.9949 32.1759 72.4331 31.3522 72.4307 30.6211C72.432 29.7714 72.1062 28.9539 71.5212 28.3388C70.9513 27.6834 70.2457 27.1605 69.4536 26.8063C68.6615 26.4521 67.8018 26.2752 66.9345 26.2879Z" fill="#941F77"/>
<path d="M75.749 15.7236C76.5863 15.9967 77.2991 16.5597 77.7599 17.3116L78.9643 19.7827C79.132 19.8355 79.3072 19.8607 79.483 19.8575C79.6294 19.8776 79.7784 19.8514 79.9093 19.7827C79.911 19.5163 79.8979 19.25 79.8702 18.9851C79.5003 18.1807 79.1972 17.3471 78.9643 16.4927C78.7523 15.6757 78.4669 14.8796 78.1116 14.1142C77.7776 13.5445 77.1204 13.046 76.1469 12.6081C75.3903 12.2887 74.6171 12.0106 73.8305 11.7749H73.1199V12.2022C73.5188 13.056 73.8745 13.9295 74.1858 14.8192C74.3812 15.1397 74.8999 15.4459 75.749 15.7236Z" fill="#941F77"/>
<path d="M75.7739 40.5837L78.8861 42.3106V26.2451H75.7739V40.5837Z" fill="#941F77"/>
<path d="M73.9583 21.7161H7.55673V17.7994L4.22066 15.485V21.709H0.355225V23.9379H4.22776V37.4895C4.24139 38.2176 4.45932 38.9271 4.85661 39.5369C5.82296 41.1107 7.16947 41.9035 8.89612 41.9154C11.8757 41.9296 14.0761 40.357 15.4972 37.1976L11.7703 35.0612C11.7703 38.8734 10.8502 40.7807 9.00981 40.7831C8.79516 40.7748 8.58642 40.7103 8.40441 40.5959C8.22239 40.4816 8.07344 40.3215 7.9724 40.1315C7.71269 39.7742 7.56994 39.345 7.56383 38.9031V23.9486H20.0554V28.7518L19.9631 28.8658C19.654 29.1364 19.4195 29.3429 19.2525 29.4782V30.8561C19.9631 30.6105 20.6736 30.3292 21.4233 30.0194C23.1602 29.3109 25.0157 28.94 26.891 28.9263C27.6066 28.873 28.325 28.9801 28.9942 29.2396C29.6224 29.5751 30.1647 30.0516 30.5788 30.6318V32.3409C29.5011 31.5243 28.08 31.1161 26.3154 31.1161C24.9583 31.0819 23.6086 31.3264 22.3493 31.8347C21.09 32.3429 19.9479 33.1041 18.9931 34.0714C17.9818 35.0849 17.4761 36.1056 17.4761 37.1335C17.4752 38.0556 17.8187 38.9447 18.4389 39.6259C19.7605 41.1641 21.6388 41.932 24.0736 41.9296C25.6747 41.9632 27.2632 41.6397 28.7242 40.9825C29.1435 40.7831 29.6799 40.4947 30.3372 40.1101C30.4971 40.2205 30.5788 40.4662 30.5788 40.8721C32.2841 41.5842 33.2659 41.9866 33.524 42.0791V34.9223C33.524 31.7629 33.2588 29.6633 32.7282 28.6236C31.9348 27.0665 30.1442 26.2879 27.3564 26.2879C26.6795 26.2882 26.0041 26.3501 25.3384 26.473C23.761 26.7626 22.8609 26.949 22.6383 27.0321C22.6285 27.027 22.62 27.0197 22.6134 27.0107C22.5947 26.989 22.5719 26.9712 22.5463 26.9583C22.5207 26.9455 22.4928 26.9379 22.4642 26.9359V23.9486H81.0035V21.7196L73.9583 21.7161ZM28.0918 38.0379C26.1913 39.1878 24.0092 39.7857 21.7892 39.7647C20.0081 39.7647 18.9884 39.3126 18.7302 38.4082C18.7302 37.9334 19.0453 37.3139 19.6753 36.5495C21.2456 34.6695 23.3347 33.7284 25.9424 33.726C26.8603 33.7657 27.7664 33.9483 28.6283 34.2672C29.9251 34.698 30.5752 35.1894 30.5752 35.7342C30.5752 36.2789 29.7474 37.0195 28.0918 38.0379Z" fill="#941F77"/>
</g>
<defs>
<linearGradient id="paint0_linear_12_179" x1="1.65934" y1="49.681" x2="1.65934" y2="54.616" gradientUnits="userSpaceOnUse">
<stop stop-color="#DA2051"/>
<stop offset="1" stop-color="#941F77"/>
</linearGradient>
<linearGradient id="paint1_linear_12_179" x1="7.36142" y1="49.681" x2="7.36142" y2="54.616" gradientUnits="userSpaceOnUse">
<stop stop-color="#DA2051"/>
<stop offset="1" stop-color="#941F77"/>
</linearGradient>
<linearGradient id="paint2_linear_12_179" x1="13.2164" y1="49.681" x2="13.2164" y2="54.616" gradientUnits="userSpaceOnUse">
<stop stop-color="#DA2051"/>
<stop offset="1" stop-color="#941F77"/>
</linearGradient>
<linearGradient id="paint3_linear_12_179" x1="18.2827" y1="49.681" x2="18.2827" y2="54.616" gradientUnits="userSpaceOnUse">
<stop stop-color="#DA2051"/>
<stop offset="1" stop-color="#941F77"/>
</linearGradient>
<linearGradient id="paint4_linear_12_179" x1="23.5123" y1="49.681" x2="23.5123" y2="54.616" gradientUnits="userSpaceOnUse">
<stop stop-color="#DA2051"/>
<stop offset="1" stop-color="#941F77"/>
</linearGradient>
<linearGradient id="paint5_linear_12_179" x1="30.7955" y1="49.681" x2="30.7955" y2="54.616" gradientUnits="userSpaceOnUse">
<stop stop-color="#DA2051"/>
<stop offset="1" stop-color="#941F77"/>
</linearGradient>
<linearGradient id="paint6_linear_12_179" x1="34.6042" y1="49.681" x2="34.6042" y2="54.616" gradientUnits="userSpaceOnUse">
<stop stop-color="#DA2051"/>
<stop offset="1" stop-color="#941F77"/>
</linearGradient>
<linearGradient id="paint7_linear_12_179" x1="38.4092" y1="49.681" x2="38.4092" y2="54.616" gradientUnits="userSpaceOnUse">
<stop stop-color="#DA2051"/>
<stop offset="1" stop-color="#941F77"/>
</linearGradient>
<linearGradient id="paint8_linear_12_179" x1="43.7633" y1="49.681" x2="43.7633" y2="54.616" gradientUnits="userSpaceOnUse">
<stop stop-color="#DA2051"/>
<stop offset="1" stop-color="#941F77"/>
</linearGradient>
<linearGradient id="paint9_linear_12_179" x1="48.8082" y1="49.681" x2="48.8082" y2="54.616" gradientUnits="userSpaceOnUse">
<stop stop-color="#DA2051"/>
<stop offset="1" stop-color="#941F77"/>
</linearGradient>
<linearGradient id="paint10_linear_12_179" x1="53.441" y1="49.681" x2="53.441" y2="54.616" gradientUnits="userSpaceOnUse">
<stop stop-color="#DA2051"/>
<stop offset="1" stop-color="#941F77"/>
</linearGradient>
<linearGradient id="paint11_linear_12_179" x1="57.5338" y1="49.681" x2="57.5338" y2="54.616" gradientUnits="userSpaceOnUse">
<stop stop-color="#DA2051"/>
<stop offset="1" stop-color="#941F77"/>
</linearGradient>
<linearGradient id="paint12_linear_12_179" x1="61.8504" y1="49.681" x2="61.8504" y2="54.616" gradientUnits="userSpaceOnUse">
<stop stop-color="#DA2051"/>
<stop offset="1" stop-color="#941F77"/>
</linearGradient>
<linearGradient id="paint13_linear_12_179" x1="66.9026" y1="49.681" x2="66.9026" y2="54.616" gradientUnits="userSpaceOnUse">
<stop stop-color="#DA2051"/>
<stop offset="1" stop-color="#941F77"/>
</linearGradient>
<linearGradient id="paint14_linear_12_179" x1="74.335" y1="49.681" x2="74.335" y2="54.616" gradientUnits="userSpaceOnUse">
<stop stop-color="#DA2051"/>
<stop offset="1" stop-color="#941F77"/>
</linearGradient>
<linearGradient id="paint15_linear_12_179" x1="78.7582" y1="49.681" x2="78.7582" y2="54.616" gradientUnits="userSpaceOnUse">
<stop stop-color="#DA2051"/>
<stop offset="1" stop-color="#941F77"/>
</linearGradient>
<clipPath id="clip0_12_179">
<rect width="81" height="54" fill="white"/>
</clipPath>
</defs>
</svg>
